name Run_200 02_newCOP3_v24.mot
datacolumns 19
datarows 53
range 2.73 2.782
DataType=double
version=3
OpenSimVersion=4.3-2021-08-27-4bc7ad9
endheader
time	R_ground_force_vx	R_ground_force_vy	R_ground_force_vz	R_ground_force_px	R_ground_force_py	R_ground_force_pz	L_ground_force_vx	L_ground_force_vy	L_ground_force_vz	L_ground_force_px	L_ground_force_py	L_ground_force_pz	R_ground_torque_x	R_ground_torque_y	R_ground_torque_z	L_ground_torque_x	L_ground_torque_y	L_ground_torque_z
2.73	0	0	0	0	0	0	62.124386	901.1026000000001	22.213997	0.5641699999999999	0	-0.345646	0	0	0	-0	0.668095	-0
2.731	0	0	0	0	0	0	63.613068	891.089233	21.233765	0.5628069999999999	0	-0.345515	0	0	0	-0	0.667494	-0
2.732	0	0	0	0	0	0	65.070488	881.064209	20.243279	0.561436	0	-0.345378	0	0	0	-0	0.663293	-0
2.733	0	0	0	0	0	0	66.492317	871.027405	19.241741	0.5600579999999999	0	-0.345236	0	0	0	-0	0.655403	-0
2.734	0	0	0	0	0	0	67.87453499999999	860.979248	18.228605	0.558674	0	-0.345087	0	0	0	-0	0.643739	-0
2.735	0	0	0	0	0	0	69.213455	850.920715	17.203682	0.557284	0	-0.344933	0	0	0	-0	0.628221	-0
2.736	0	0	0	0	0	0	70.50578299999999	840.8532709999999	16.167233	0.555889	0	-0.344774	0	0	0	-0	0.60878	-0
2.737	0	0	0	0	0	0	71.748589	830.778748	15.120055	0.554489	0	-0.344609	0	0	0	-0	0.585355	-0
2.738	0	0	0	0	0	0	72.93935399999999	820.699524	14.063544	0.553084	0	-0.34444	0	0	0	-0	0.557898	-0
2.739	0	0	0	0	0	0	74.075928	810.618469	12.999723	0.5516760000000001	0	-0.344266	0	0	0	-0	0.526377	-0
2.74	0	0	0	0	0	0	75.156532	800.538696	11.931266	0.550264	0	-0.344087	0	0	0	-0	0.490776	-0
2.741	0	0	0	0	0	0	76.179726	790.463562	10.861479	0.5488499999999999	0	-0.343904	0	0	0	-0	0.451097	-0
2.742	0	0	0	0	0	0	77.14439400000001	780.396667	9.794275000000001	0.5474329999999999	0	-0.343717	0	0	0	-0	0.407364	-0
2.743	0	0	0	0	0	0	78.049713	770.341858	8.734119	0.546015	0	-0.343525	0	0	0	-0	0.359624	-0
2.744	0	0	0	0	0	0	78.895195	760.3027949999999	7.685949	0.5445950000000001	0	-0.343331	0	0	0	-0	0.307947	-0
2.745	0	0	0	0	0	0	79.680634	750.283142	6.655085	0.543175	0	-0.343132	0	0	0	-0	0.252433	-0
2.746	0	0	0	0	0	0	80.406143	740.286621	5.647123	0.541754	0	-0.34293	0	0	0	-0	0.193204	-0
2.747	0	0	0	0	0	0	81.07218899999999	730.3165279999999	4.667814	0.540332	0	-0.342725	0	0	0	-0	0.130414	-0
2.748	0	0	0	0	0	0	81.679573	720.376099	3.722933	0.538911	0	-0.342517	0	0	0	-0	0.064246	-0
2.749	0	0	0	0	0	0	82.229477	710.468201	2.818142	0.53749	0	-0.342307	0	0	0	0	-0.005089	0
2.75	0	0	0	0	0	0	82.723473	700.595459	1.958856	0.536069	0	-0.342093	0	0	0	0	-0.07735	0
2.751	0	0	0	0	0	0	83.163521	690.760193	1.150099	0.534648	0	-0.341878	0	0	0	0	-0.152266	0
2.752	0	0	0	0	0	0	83.551918	680.964417	0.396377	0.533228	0	-0.34166	0	0	0	0	-0.229541	0
2.753	0	0	0	0	0	0	83.891335	671.209839	-0.298452	0.5318079999999999	0	-0.34144	0	0	0	0	-0.308848	0
2.754	0	0	0	0	0	0	84.18467699999999	661.497742	-0.9312859999999999	0.530389	0	-0.341218	0	0	0	0	-0.389837	0
2.755	0	0	0	0	0	0	84.43506600000001	651.829285	-1.499879	0.528969	0	-0.340995	0	0	0	0	-0.472135	0
2.756	0	0	0	0	0	0	84.645752	642.2052	-2.002913	0.527549	0	-0.34077	0	0	0	0	-0.555349	0
2.757	0	0	0	0	0	0	84.81997699999999	632.626038	-2.44005	0.526128	0	-0.340544	0	0	0	0	-0.639065	0
2.758	0	0	0	0	0	0	84.96088399999999	623.092041	-2.811969	0.524705	0	-0.340317	0	0	0	0	-0.722859	0
2.759	0	0	0	0	0	0	85.071434	613.603027	-3.120354	0.523281	0	-0.34009	0	0	0	0	-0.806293	0
2.76	0	0	0	0	0	0	85.154297	604.158691	-3.367877	0.521855	0	-0.339862	0	0	0	0	-0.888923	0
2.761	0	0	0	0	0	0	85.211754	594.758362	-3.558142	0.520425	0	-0.339634	0	0	0	0	-0.9703040000000001	0
2.762	0	0	0	0	0	0	85.24567399999999	585.401062	-3.695598	0.518992	0	-0.339406	0	0	0	0	-1.04999	0
2.763	0	0	0	0	0	0	85.257454	576.085571	-3.785446	0.517554	0	-0.339178	0	0	0	0	-1.127545	0
2.764	0	0	0	0	0	0	85.248024	566.810486	-3.833506	0.516111	0	-0.338951	0	0	0	0	-1.20254	0
2.765	0	0	0	0	0	0	85.21785	557.573975	-3.846083	0.514661	0	-0.338725	0	0	0	0	-1.274567	0
2.766	0	0	0	0	0	0	85.167	548.374329	-3.829818	0.513205	0	-0.3385	0	0	0	0	-1.343235	0
2.767	0	0	0	0	0	0	85.095169	539.209534	-3.791532	0.51174	0	-0.338276	0	0	0	0	-1.408181	0
2.768	0	0	0	0	0	0	85.001785	530.0775149999999	-3.738076	0.510266	0	-0.338055	0	0	0	0	-1.469071	0
2.769	0	0	0	0	0	0	84.88608600000001	520.976318	-3.676184	0.508782	0	-0.337835	0	0	0	0	-1.525607	0
2.77	0	0	0	0	0	0	84.747169	511.904022	-3.612336	0.507287	0	-0.337618	0	0	0	0	-1.577528	0
2.771	0	0	0	0	0	0	84.58412199999999	502.859039	-3.55264	0.50578	0	-0.337403	0	0	0	0	-1.624616	0
2.772	0	0	0	0	0	0	84.39604199999999	493.839996	-3.502727	0.504261	0	-0.337191	0	0	0	0	-1.666701	0
2.773	0	0	0	0	0	0	84.182106	484.845947	-3.467668	0.502728	0	-0.336983	0	0	0	0	-1.70366	0
2.774	0	0	0	0	0	0	83.941605	475.876434	-3.45191	0.50118	0	-0.336777	0	0	0	0	-1.735421	0
2.775	0	0	0	0	0	0	83.673965	466.93161	-3.459228	0.499618	0	-0.336576	0	0	0	0	-1.761966	0
2.776	0	0	0	0	0	0	83.378738	458.012177	-3.492697	0.498039	0	-0.336378	0	0	0	0	-1.783332	0
2.777	0	0	0	0	0	0	83.055603	449.119659	-3.554679	0.496445	0	-0.336184	0	0	0	0	-1.799609	0
2.778	0	0	0	0	0	0	82.704353	440.256226	-3.646817	0.494834	0	-0.335994	0	0	0	0	-1.810944	0
2.779	0	0	0	0	0	0	82.32482899999999	431.424805	-3.770043	0.493206	0	-0.335808	0	0	0	0	-1.817537	0
2.78	0	0	0	0	0	0	81.916977	422.629059	-3.924593	0.491561	0	-0.335626	0	0	0	0	-1.819641	0
2.781	0	0	0	0	0	0	81.480728	413.873383	-4.110021	0.489899	0	-0.335448	0	0	0	0	-1.817561	0
2.782	0	0	0	0	0	0	81.016068	405.162903	-4.325221	0.48822	0	-0.335274	0	0	0	0	-1.811648	0
